<?xml version="1.0" encoding="UTF-8" standalone="no"?>
<!DOCTYPE svg PUBLIC "-//W3C//DTD SVG 1.1//EN"
 "http://www.w3.org/Graphics/SVG/1.1/DTD/svg11.dtd">
<!-- Generated by graphviz version 9.0.0 (20230911.1827)
 -->
<!-- Pages: 1 -->
<svg width="161pt" height="300pt"
 viewBox="0.00 0.00 160.88 299.65" xmlns="http://www.w3.org/2000/svg" xmlns:xlink="http://www.w3.org/1999/xlink">
<g id="graph0" class="graph" transform="scale(1 1) rotate(0) translate(4 295.65)">
<polygon fill="white" stroke="none" points="-4,4 -4,-295.65 156.88,-295.65 156.88,4 -4,4"/>
<!-- A -->
<g id="node1" class="node">
<title>A</title>
<polygon fill="lightgray" stroke="black" points="47.39,-291.65 24.64,-291.65 24.64,-272.4 47.39,-272.4 47.39,-291.65"/>
<text text-anchor="middle" x="36.02" y="-279.1" font-family="Times New Roman,serif" font-size="9.00">A</text>
</g>
<!-- A XOR B -->
<g id="node3" class="node">
<title>A XOR B</title>
<ellipse fill="lightblue" stroke="black" cx="58.02" cy="-37.3" rx="37.3" ry="37.3"/>
<text text-anchor="middle" x="58.02" y="-34.37" font-family="Times New Roman,serif" font-size="9.00">A XOR B</text>
</g>
<!-- A&#45;&gt;A XOR B -->
<g id="edge8" class="edge">
<title>A&#45;&gt;A XOR B</title>
<path fill="none" stroke="red" stroke-width="0.34" d="M26.69,-272.13C18.66,-263.78 7.66,-250.5 3.02,-236.4 -1.04,-224.09 -0.93,-125.18 4.02,-110.6 8.68,-96.87 17.02,-83.62 25.78,-72.3"/>
<polygon fill="red" stroke="red" stroke-width="0.34" points="28.27,-74.78 31.86,-64.81 22.84,-70.37 28.27,-74.78"/>
</g>
<!-- 1190 -->
<g id="node5" class="node">
<title>1190</title>
<ellipse fill="white" stroke="black" cx="36.02" cy="-212.36" rx="24.04" ry="24.04"/>
<text text-anchor="middle" x="36.02" y="-209.44" font-family="Times New Roman,serif" font-size="9.00">1190</text>
</g>
<!-- A&#45;&gt;1190 -->
<g id="edge9" class="edge">
<title>A&#45;&gt;1190</title>
<path fill="none" stroke="red" stroke-width="0.14" d="M36.02,-272.18C36.02,-265.6 36.02,-256.18 36.02,-246.8"/>
<polygon fill="red" stroke="red" stroke-width="0.14" points="39.52,-246.99 36.02,-236.99 32.52,-246.99 39.52,-246.99"/>
</g>
<!-- 279 -->
<g id="node6" class="node">
<title>279</title>
<ellipse fill="white" stroke="black" cx="132.02" cy="-131.46" rx="20.86" ry="20.86"/>
<text text-anchor="middle" x="132.02" y="-128.53" font-family="Times New Roman,serif" font-size="9.00">279</text>
</g>
<!-- A&#45;&gt;279 -->
<g id="edge1" class="edge">
<title>A&#45;&gt;279</title>
<path fill="none" stroke="green" stroke-width="0.33" d="M47.66,-277.22C64.03,-271.24 93.57,-258.04 109.02,-236.4 124.33,-214.94 129.72,-185.12 131.49,-162.92"/>
<polygon fill="green" stroke="green" stroke-width="0.33" points="134.97,-163.4 132.07,-153.21 127.98,-162.98 134.97,-163.4"/>
</g>
<!-- B -->
<g id="node2" class="node">
<title>B</title>
<polygon fill="lightgray" stroke="black" points="100.02,-221.99 78.02,-221.99 78.02,-202.74 100.02,-202.74 100.02,-221.99"/>
<text text-anchor="middle" x="89.02" y="-209.44" font-family="Times New Roman,serif" font-size="9.00">B</text>
</g>
<!-- B&#45;&gt;A XOR B -->
<g id="edge6" class="edge">
<title>B&#45;&gt;A XOR B</title>
<path fill="none" stroke="green" stroke-width="0.45" d="M87.44,-202.54C83.61,-181.17 73.62,-125.38 66.34,-84.74"/>
<polygon fill="green" stroke="green" stroke-width="0.45" points="69.78,-84.14 64.57,-74.91 62.89,-85.37 69.78,-84.14"/>
</g>
<!-- 400 -->
<g id="node4" class="node">
<title>400</title>
<ellipse fill="white" stroke="black" cx="34.02" cy="-131.46" rx="20.86" ry="20.86"/>
<text text-anchor="middle" x="34.02" y="-128.53" font-family="Times New Roman,serif" font-size="9.00">400</text>
</g>
<!-- B&#45;&gt;400 -->
<g id="edge4" class="edge">
<title>B&#45;&gt;400</title>
<path fill="none" stroke="red" stroke-width="0.51" d="M82.71,-202.31C75.16,-191.48 62.21,-172.9 51.56,-157.63"/>
<polygon fill="red" stroke="red" stroke-width="0.51" points="54.64,-155.93 46.05,-149.73 48.9,-159.93 54.64,-155.93"/>
</g>
<!-- B&#45;&gt;279 -->
<g id="edge3" class="edge">
<title>B&#45;&gt;279</title>
<path fill="none" stroke="red" stroke-width="0.89" d="M93.95,-202.31C99.54,-192.05 108.93,-174.83 116.98,-160.05"/>
<polygon fill="red" stroke="red" stroke-width="0.89" points="119.93,-161.96 121.64,-151.5 113.78,-158.61 119.93,-161.96"/>
</g>
<!-- 400&#45;&gt;A XOR B -->
<g id="edge5" class="edge">
<title>400&#45;&gt;A XOR B</title>
<path fill="none" stroke="red" stroke-width="0.5" stroke-dasharray="1,5" d="M39.11,-110.91C41.17,-103 43.64,-93.5 46.11,-84.02"/>
<polygon fill="red" stroke="red" stroke-width="0.5" points="49.44,-85.11 48.58,-74.55 42.67,-83.34 49.44,-85.11"/>
</g>
<!-- 1190&#45;&gt;400 -->
<g id="edge7" class="edge">
<title>1190&#45;&gt;400</title>
<path fill="none" stroke="green" stroke-width="0.36" d="M35.43,-188.11C35.23,-180.28 35,-171.4 34.79,-163.08"/>
<polygon fill="green" stroke="green" stroke-width="0.36" points="38.29,-163.05 34.54,-153.14 31.29,-163.23 38.29,-163.05"/>
</g>
<!-- 279&#45;&gt;A XOR B -->
<g id="edge2" class="edge">
<title>279&#45;&gt;A XOR B</title>
<path fill="none" stroke="green" stroke-width="1.17" d="M119.46,-114.83C110.95,-104.23 99.32,-89.74 88.46,-76.22"/>
<polygon fill="green" stroke="green" stroke-width="1.17" points="91.22,-74.06 82.23,-68.46 85.76,-78.45 91.22,-74.06"/>
</g>
</g>
</svg>
